<?xml version="1.0" standalone="no"?>
<!DOCTYPE svg PUBLIC "-//W3C//DTD SVG 20010904//EN"
 "http://www.w3.org/TR/2001/REC-SVG-20010904/DTD/svg10.dtd">
<svg version="1.0" xmlns="http://www.w3.org/2000/svg"
 width="512.000000pt" height="512.000000pt" viewBox="0 0 512.000000 512.000000"
 preserveAspectRatio="xMidYMid meet">
<metadata>
Created by potrace 1.14, written by Peter Selinger 2001-2017
</metadata>
<g transform="translate(0.000000,512.000000) scale(0.100000,-0.100000)"
fill="#000000" stroke="none">
<path d="M4605 5065 c-144 -33 -269 -154 -310 -301 l-5 -21 -673 -1 c-369 0
-680 -1 -689 -1 -9 -1 -29 -12 -45 -25 l-28 -24 -1 -339 c-2 -401 -1 -373 -17
-373 -20 0 -50 -36 -68 -83 -24 -60 -37 -65 -90 -31 -68 44 -100 39 -191 -28
-84 -62 -100 -83 -93 -119 16 -76 17 -119 4 -120 -129 -7 -148 -20 -183 -124
-41 -120 -40 -135 14 -194 22 -24 40 -47 40 -52 0 -5 -16 -26 -35 -47 -57 -64
-59 -79 -24 -187 35 -110 50 -124 137 -134 l57 -6 -1 -35 c0 -19 -4 -50 -8
-68 -11 -53 4 -73 105 -145 77 -55 107 -58 170 -22 24 14 51 25 59 25 9 0 27
-24 43 -56 19 -38 36 -59 57 -67 36 -16 197 -14 227 1 11 6 32 36 47 67 30 61
42 65 92 34 64 -39 88 -40 141 -7 72 45 134 98 142 122 5 11 2 45 -5 76 -15
66 -7 80 46 80 69 0 100 18 126 74 30 65 49 147 40 179 -3 15 -22 43 -41 64
-19 21 -35 44 -35 52 0 8 18 33 40 57 30 33 40 52 40 77 0 43 -36 153 -61 189
-22 30 -32 34 -104 43 -27 3 -53 9 -57 13 -4 4 -1 33 6 64 19 81 7 102 -96
172 -95 64 -103 65 -187 19 -30 -15 -55 -24 -58 -18 -28 68 -62 122 -84 132
l-26 13 1 292 1 293 620 0 c341 1 628 -1 638 -3 9 -2 17 -12 17 -21 0 -34 59
-138 104 -181 l46 -45 0 -712 0 -712 -33 -16 c-23 -11 -37 -26 -43 -48 -11
-38 -11 -2711 0 -2745 16 -48 42 -51 339 -49 273 2 277 2 299 25 l23 23 1
1362 c1 868 -3 1372 -9 1391 -6 17 -22 33 -41 41 l-31 13 -1 717 0 717 23 15
c38 25 102 122 119 180 47 163 12 311 -101 426 -101 102 -249 145 -390 112z
m-1568 -1701 c71 -54 87 -150 37 -226 -30 -47 -76 -71 -135 -71 -183 3 -231
240 -64 319 44 21 119 11 162 -22z"/>
<path d="M648 4395 c-128 -26 -228 -82 -319 -176 -62 -65 -124 -179 -143 -262
l-11 -52 -50 -1 c-66 -1 -90 -10 -109 -39 -14 -22 -16 -201 -13 -1899 l2
-1875 23 -23 23 -23 2043 -2 2043 -1 29 23 29 23 1 578 2 578 -28 28 -28 28
-271 0 c-148 0 -281 -4 -295 -10 -36 -13 -47 -42 -50 -133 -4 -93 -13 -137
-30 -137 -88 -3 -124 -23 -174 -96 -31 -44 -33 -54 -28 -100 3 -28 8 -58 12
-67 11 -30 -23 -30 -72 -2 -39 23 -55 27 -93 22 -88 -10 -127 -33 -156 -90
-34 -68 -58 -72 -86 -13 -26 55 -42 69 -103 90 -67 22 -103 20 -153 -8 -34
-20 -45 -22 -58 -12 -15 10 -15 18 -5 55 15 56 7 84 -41 148 -41 54 -47 58
-120 67 -40 6 -47 11 -57 40 -7 18 -12 68 -12 112 0 67 -3 84 -20 102 -27 29
-43 32 -190 35 l-125 2 0 309 0 308 -28 24 c-30 26 -49 27 -364 24 l-113 -1 0
941 0 941 -25 24 c-13 14 -34 26 -47 26 -34 2 -81 5 -95 7 -7 1 -13 12 -13 25
-1 74 -78 216 -165 302 -139 138 -332 197 -517 160z"/>
</g>
</svg>
